<svg width="1600" height="1200" viewBox="0 0 1600 1200" fill="none" xmlns="http://www.w3.org/2000/svg">
  <defs>
    <linearGradient id="bg" x1="0" y1="0" x2="1600" y2="1200" gradientUnits="userSpaceOnUse">
      <stop stop-color="#5E7454"/>
      <stop offset="0.55" stop-color="#7F8E73"/>
      <stop offset="1" stop-color="#C67D5B"/>
    </linearGradient>
    <linearGradient id="glass" x1="260" y1="230" x2="1270" y2="910" gradientUnits="userSpaceOnUse">
      <stop stop-color="#FFFFFF" stop-opacity="0.30"/>
      <stop offset="1" stop-color="#FFFFFF" stop-opacity="0.08"/>
    </linearGradient>
  </defs>
  <rect width="1600" height="1200" fill="url(#bg)"/>
  <circle cx="220" cy="170" r="120" fill="#F4EFE6" fill-opacity="0.18"/>
  <circle cx="1360" cy="980" r="170" fill="#F4EFE6" fill-opacity="0.14"/>
  <rect x="200" y="190" width="1200" height="820" rx="48" fill="url(#glass)" stroke="#FBF9F6" stroke-opacity="0.45" stroke-width="2"/>
  <rect x="280" y="270" width="460" height="520" rx="38" fill="#FAF9F6" fill-opacity="0.95"/>
  <circle cx="510" cy="510" r="140" fill="#D7E1D1"/>
  <ellipse cx="470" cy="470" rx="28" ry="34" fill="#2D2A26"/>
  <ellipse cx="550" cy="470" rx="28" ry="34" fill="#2D2A26"/>
  <ellipse cx="510" cy="560" rx="62" ry="52" fill="#2D2A26"/>
  <circle cx="470" cy="525" r="19" fill="#FAF9F6" fill-opacity="0.55"/>
  <circle cx="550" cy="525" r="19" fill="#FAF9F6" fill-opacity="0.55"/>
  <rect x="800" y="300" width="500" height="120" rx="22" fill="#FAF9F6" fill-opacity="0.85"/>
  <rect x="800" y="450" width="380" height="70" rx="16" fill="#FAF9F6" fill-opacity="0.65"/>
  <rect x="800" y="550" width="450" height="70" rx="16" fill="#FAF9F6" fill-opacity="0.65"/>
  <rect x="800" y="650" width="330" height="70" rx="16" fill="#FAF9F6" fill-opacity="0.65"/>
  <text x="320" y="890" fill="#FBF9F6" font-size="58" font-family="Georgia, 'Times New Roman', serif" font-weight="700">PetHub Premium Care</text>
  <text x="320" y="950" fill="#FBF9F6" font-size="30" font-family="Arial, sans-serif" opacity="0.92">Operational calm for modern pet clinics</text>
</svg>
